<svg id="_Group_" data-name="&lt;Group&gt;" xmlns="http://www.w3.org/2000/svg" width="266.975" height="315.304" viewBox="0 0 266.975 315.304">
  <path id="_Path_" data-name="&lt;Path&gt;" d="M255.441,304.65H11.524V11.234H255.441V53.552h10.944V.29H.58v315.3h265.8V262.247H255.441Z" transform="translate(-0.58 -0.29)" fill="#fff"/>
  <path id="_Path_2" data-name="&lt;Path&gt;" d="M129.66,371.174h2.072v-15.5H129.66Z" transform="translate(-38.695 -105.228)" fill="#fff"/>
  <path id="_Path_3" data-name="&lt;Path&gt;" d="M169.414,366.149,159.4,355.67v15.5h2.072V360.723l10.014,10.451v-15.5h-2.072Z" transform="translate(-47.477 -105.228)" fill="#fff"/>
  <path id="_Path_4" data-name="&lt;Path&gt;" d="M204.65,366.072a5.721,5.721,0,0,1-.374,2.452,1.3,1.3,0,0,1-1.283.7,1.747,1.747,0,0,1-1.029-.282l-1.4,1.55a4.613,4.613,0,0,0,2.424.677,3.439,3.439,0,0,0,2.755-1.219,3.526,3.526,0,0,0,.761-1.5,9.433,9.433,0,0,0,.218-2.375V355.67H204.65Z" transform="translate(-59.634 -105.228)" fill="#fff"/>
  <path id="_Path_5" data-name="&lt;Path&gt;" d="M234.38,371.174h2.234l4.9-10.86,4.708,10.86H248.5l-6.941-15.5Z" transform="translate(-69.617 -105.228)" fill="#fff"/>
  <path id="_Path_6" data-name="&lt;Path&gt;" d="M278.145,355.67v1.952h5.638l-7.773,13.552h11.184v-1.945h-7.78l7.78-13.559Z" transform="translate(-81.91 -105.228)" fill="#fff"/>
  <path id="_Path_7" data-name="&lt;Path&gt;" d="M96.714,355.67l-9.972,10.479V355.67H84.67v15.5l5.349-5.56,5.793,5.56h2.918l-7.315-7.012,8.168-8.492Z" transform="translate(-25.41 -105.228)" fill="#fff"/>
  <path id="_Path_8" data-name="&lt;Path&gt;" d="M225.81,148.3c-2.523-3.784-5.039-7.569-7.512-11.381a7.324,7.324,0,0,0-7.745-3.559c-4.179.6-8.372,1.149-12.558,1.705l-77.1,10.254c-1.353.183-2.713.352-4.165.536l-.93.12a21.239,21.239,0,0,0,2.417-13.171l43.037-5.405q4.662-.581,9.337-1.135c6.8-.817,13.827-1.663,20.719-2.678a61.57,61.57,0,0,1,25.095,1.071c1.536.409,3.087.761,4.637,1.12l2.107.486a.576.576,0,0,0,.62-.247.594.594,0,0,0-.014-.677,6.34,6.34,0,0,0-1.177-1.2c-.183-.155-.359-.3-.521-.465-.564-.543-1.135-1.085-1.705-1.628-1.656-1.579-3.376-3.206-4.891-4.954-1.128-1.3-1.022-1.691.063-3.312q7.389-11.036,14.722-22.093a4.352,4.352,0,0,0-.817-6.152c-5.49-4.482-10.923-8.865-17.4-14.066a4.882,4.882,0,0,0-4.743-.881l-1.846.571c-3.968,1.219-8.069,2.488-12.135,3.58-25.468,6.829-49.182,9.633-72.5,8.562a160.623,160.623,0,0,1-37.893-5.948c-.226-.063-.458-.113-.789-.176l-.655-.127a.59.59,0,0,0-.557.973l.514.592c.282.324.493.564.712.789l2.918,3.058c3.418,3.587,6.836,7.181,10.3,10.733a7.312,7.312,0,0,0,2.784,1.924l1.614.543a90.427,90.427,0,0,0,9.633,2.9,131.228,131.228,0,0,0,47.357,1.36c10.035-1.438,20.176-3.284,29.979-5.067q6.554-1.194,13.108-2.354c.775-.134,1.543-.275,2.41-.43a1,1,0,0,1-.078.106l-3.136,4.207q-2.844,3.795-5.666,7.611a3.641,3.641,0,0,1-2.7,1.522c-3.721.458-7.449.93-11.17,1.4q-6.438.814-12.868,1.6c-4.2.507-8.4,1.064-12.593,1.614-12.213,1.6-24.841,3.249-37.357,3.841-.754.035-1.522.078-2.283.12a67.964,67.964,0,0,1-11.55-.035,66.168,66.168,0,0,1-9.732-2.163c-1.424-.395-2.84-.782-4.264-1.135-.4-.1-.8-.2-1.191-.31l-.578-.155a.593.593,0,0,0-.648.261.605.605,0,0,0,.056.7,29.473,29.473,0,0,0,2.925,2.875l.817.74c2.939,2.692,5.976,5.476,8.027,9.006a4.342,4.342,0,0,1,.669,3.362c-1.938,8.231-6.737,14.418-14.686,18.922-.641.366-1.494.951-1.543,1.811s.712,1.487,1.283,1.9q8.552,6.11,17.118,12.206a11.628,11.628,0,0,0,8.1,2.22q9.862-1,19.725-2.044l3.46-.366q14.344-1.49,28.689-3l28.358-2.974c5.652-.592,11.3-1.184,16.955-1.727a1.7,1.7,0,0,1,.958.254c.81,1.579,1.12,2.861.148,4.383q-6.755,10.613-13.432,21.275-4.5,7.167-9.02,14.327a7.011,7.011,0,0,1-5.257,3.2q-17.748,2.378-35.5,4.8c-.395.049-1.9.437-2.051,1.325a3.057,3.057,0,0,0,.881,2.3c7.611,8.083,15.208,16.06,21.635,22.8a2.652,2.652,0,0,0,.521.416l-4.722.585c-3.481.43-6.963.86-10.444,1.318a1.851,1.851,0,0,1-1.8-.7q-7.357-7.674-14.75-15.32-4.535-4.7-9.07-9.415a5.516,5.516,0,0,0-4.475-1.8l-3.5.218c-5.137.324-10.458.655-15.687,1.05-7.674.592-13.671-.557-18.872-3.608a2.709,2.709,0,0,0-.7-.254c-.134-.035-.3-.07-.493-.134a.575.575,0,0,0-.648.225.6.6,0,0,0,.014.7c.93,1.247,1.825,2.474,2.713,3.693,2.135,2.925,4.151,5.687,6.364,8.351a24.786,24.786,0,0,0,6.011,5.166c3.953,2.431,8.421,2.326,12.664,1.846,2.34-.261,4.7-.62,6.984-.973,2.023-.3,4.116-.62,6.18-.874,3.347-.4,5.955.43,7.97,2.551q1.586,1.66,3.185,3.312c1.261,1.318,2.53,2.636,3.791,3.96.853.9,1.691,1.825,2.558,2.791l.543.6q-5.793.719-11.593,1.423c-9.373,1.142-19.07,2.326-28.59,3.594a29,29,0,0,1-15.553-1.9c-1.67-.712-3.333-1.5-4.947-2.262-.733-.345-1.473-.691-2.206-1.036a.579.579,0,0,0-.557.035.6.6,0,0,0-.275.493l-.007.268a.6.6,0,0,0,.162.416l4.56,4.933q4.408,4.789,8.816,9.57c4,4.341,9.26,6.582,16.117,6.836.536.021,1.078.035,1.614.042a149.381,149.381,0,0,0,22.509-1.557c12.17-1.593,24.517-3.354,36.469-5.053l8.781-1.247c13.235-1.882,23.932-2.051,33.678-.536,8.76,1.353,15.624,3.58,21.607,7a2.891,2.891,0,0,0,.585.24c.134.042.3.1.521.176a.589.589,0,0,0,.684-.218.6.6,0,0,0-.042-.726l-.4-.479a4.917,4.917,0,0,0-.472-.529q-3.256-3.1-6.519-6.187c-4.729-4.482-9.626-9.112-14.383-13.728a18.832,18.832,0,0,0-15.631-5.342c-5.412.472-10.937.768-16.286,1.057l-1.832.092a2,2,0,0,1-1.36-.571c-2.34-2.361-4.609-4.785-7.125-7.477a2.034,2.034,0,0,1-.317-.557,1.755,1.755,0,0,1,.564-.268c1.987-.4,3.982-.775,5.976-1.156,3.636-.691,7.407-1.4,11.085-2.227,6.272-1.409,11.311-.782,15.849,1.966a1.249,1.249,0,0,0,.662.155c.07.007.141.007.226.014a.587.587,0,0,0,.6-.832l-.345-.768c-.233-.486-.437-.93-.627-1.388a7.411,7.411,0,0,1,1.106-7.9c8.922-11.8,17.956-23.841,26.695-35.482l3.545-4.722c2.706-3.615,2.727-4.207.282-7.956C230.426,155.255,228.114,151.781,225.81,148.3Z" transform="translate(-22.661 -20.971)" fill="#fff"/>
  <path id="_Path_9" data-name="&lt;Path&gt;" d="M87.494,218.292c1.868,1.607,3.636,3.129,5.433,4.623,3.432,2.847,6.793,5.631,10.268,8.358a8.2,8.2,0,0,0,5.046,1.79,8.809,8.809,0,0,0,1.05-.035c4.278-.366,8.555-.712,12.833-1.064,4.863-.395,9.732-.789,14.595-1.212,7.456-.641,14.912-1.332,22.375-2.023l8.069-.74c5.109-.465,10.395-.951,15.581-1.536,1.261-.148,2.3-1.691,2.5-2,.493-.775-.374-2.171-.634-2.5-1.586-2.023-3.192-4.024-4.8-6.032-1.438-1.79-2.875-3.58-4.292-5.384a2.75,2.75,0,0,0-2.819-1.071q-12.262,1.6-24.531,3.143l-3.538.451q-5.624.719-11.254,1.416c-8.6,1.078-17.491,2.192-26.222,3.376-4.355.592-9.027.944-13.714-.437-1.783-.529-3.566-1.057-5.476-1.628l-2.551-.761a.589.589,0,0,0-.684.289.6.6,0,0,0,.141.733Z" transform="translate(-25.409 -62.042)" fill="#fff"/>
  <g id="_Group_2" data-name="&lt;Group&gt;" transform="translate(253.726 64.742)">
    <path id="_Path_10" data-name="&lt;Path&gt;" d="M373.756,99.82V97.833c-3.58-.7-8.569-1.691-10.176-1.9v-.021c1.642-.169,6.371-1.015,10.176-1.727V92.16h-12.9v1.276h5.053c2.213,0,5.137-.07,6.631-.113v.042c-2.3.31-8.365,1.325-11.684,1.846v1.346c3.834.691,9.514,1.677,11.677,1.994v.021c-1.381-.042-3.932-.078-6.293-.078H360.86V99.82Z" transform="translate(-360.691 -92.16)" fill="#fff"/>
    <path id="_Compound_Path_" data-name="&lt;Compound Path&gt;" d="M360.62,110.8c0-2,1.268-2.727,3.383-2.727h6.519c2.185,0,3.34.994,3.34,2.819,0,1.91-1.3,2.762-3.34,2.762h-6.5C361.755,113.651,360.62,112.721,360.62,110.8Zm1.24.063c0,.916.564,1.388,2.093,1.388h6.631c1.367,0,2.023-.465,2.023-1.4s-.62-1.388-2.023-1.388H363.89C362.438,109.465,361.86,109.994,361.86,110.861Z" transform="translate(-360.62 -96.858)" fill="#fff" fill-rule="evenodd"/>
    <path id="_Path_11" data-name="&lt;Path&gt;" d="M367.978,122.327l5.779-.86V119.98l-12.9,2.248v1.72l12.9,2.255v-1.459l-5.828-.874c-1.79-.261-4-.655-5.292-.761v-.028C363.975,122.968,366.174,122.587,367.978,122.327Z" transform="translate(-360.691 -100.375)" fill="#fff"/>
    <path id="_Path_12" data-name="&lt;Path&gt;" d="M373.756,133.09h-12.9v4.475l1.261.183v-3.284H367.1v2.9h1.268v-2.9h4.116v3.058h1.268Z" transform="translate(-360.691 -104.246)" fill="#fff"/>
    <path id="_Path_13" data-name="&lt;Path&gt;" d="M373.756,146.067V144.03h-12.9v1.283h5.053c2.213,0,5.137-.07,6.631-.113v.042c-2.3.31-8.365,1.325-11.684,1.846v1.346c3.834.691,9.514,1.677,11.677,1.994v.021c-1.381-.042-3.932-.078-6.293-.078H360.86V151.7h12.9V149.71c-3.58-.7-8.569-1.691-10.176-1.9v-.021C365.222,147.624,369.951,146.778,373.756,146.067Z" transform="translate(-360.691 -107.476)" fill="#fff"/>
    <path id="_Path_14" data-name="&lt;Path&gt;" d="M373.756,160.35h-12.9v4.468l1.261.19v-3.284H367.1v2.889h1.268v-2.889h4.116v3.051h1.268Z" transform="translate(-360.691 -112.295)" fill="#fff"/>
    <path id="_Path_15" data-name="&lt;Path&gt;" d="M373.756,172.875V171.24h-12.9v1.3h4.609c2.326,0,4.383-.028,5.941-.12v.021c-1.029.247-8.125,2.093-10.55,2.777V176.8h12.9v-1.29h-4.545c-2.107,0-3.918.021-5.652.092v-.028C364.609,175.363,371.374,173.573,373.756,172.875Z" transform="translate(-360.691 -115.511)" fill="#fff"/>
    <path id="_Path_16" data-name="&lt;Path&gt;" d="M373.756,183.28h-1.268v2.086H360.86v1.374h11.628v2.072h1.268Z" transform="translate(-360.691 -119.066)" fill="#fff"/>
    <path id="_Path_17" data-name="&lt;Path&gt;" d="M373.756,201.59h-12.9v1.367h12.9Z" transform="translate(-360.691 -124.473)" fill="#fff"/>
    <path id="_Path_18" data-name="&lt;Path&gt;" d="M373.756,210.615V208.98h-12.9v1.3h4.609c2.326,0,4.383-.035,5.941-.12v.021c-1.029.24-8.125,2.093-10.55,2.777v1.586h12.9v-1.3h-4.545c-2.107,0-3.918.021-5.652.1v-.028C364.609,213.11,371.374,211.313,373.756,210.615Z" transform="translate(-360.691 -126.655)" fill="#fff"/>
    <path id="_Path_19" data-name="&lt;Path&gt;" d="M373.756,227.33h-1.268v2.086H360.86v1.374h11.628v2.072h1.268Z" transform="translate(-360.691 -132.074)" fill="#fff"/>
    <path id="_Path_20" data-name="&lt;Path&gt;" d="M373.756,240.647V239.28h-12.9v1.367h6.293v2.685H360.86v1.374h12.9v-1.374h-5.342v-2.685Z" transform="translate(-360.691 -135.602)" fill="#fff"/>
    <path id="_Path_21" data-name="&lt;Path&gt;" d="M373.756,256.843V252.41h-12.9v4.475l1.261.183v-3.284H367.1v2.9h1.268v-2.9h4.116v3.058Z" transform="translate(-360.691 -139.479)" fill="#fff"/>
    <path id="_Path_22" data-name="&lt;Path&gt;" d="M370.676,269.038c-1.9,0-2.551.7-3.629,2.079-1.057,1.353-1.642,1.691-3.157,1.691-1.409,0-2.079-.366-2.079-1.29s.648-1.325,1.86-1.325h.754V268.82h-.747c-1.7,0-3.058.592-3.058,2.671,0,2.178,1.649,2.7,3.46,2.7,2.142,0,2.9-.571,4.249-2.361.9-1.184,1.353-1.423,2.551-1.423,1.015,0,1.79.233,1.79,1.113s-.691,1.092-1.762,1.092h-.564v1.367h.6c1.635,0,2.918-.507,2.925-2.431C373.883,269.525,372.311,269.038,370.676,269.038Z" transform="translate(-360.62 -144.325)" fill="#fff"/>
    <path id="_Path_23" data-name="&lt;Path&gt;" d="M360.86,285.212v1.374h12.9v-1.374h-5.342v-2.678h5.342V281.16h-12.9v1.374h6.293v2.678Z" transform="translate(-360.691 -147.969)" fill="#fff"/>
    <path id="_Compound_Path_2" data-name="&lt;Compound Path&gt;" d="M364.976,297.419v-2.178l-4.116-.613V293.24l12.9,2.114v1.959l-12.9,2.206v-1.438Zm1.261-.183c2.84-.451,5.039-.768,6.258-.895v-.056c-1-.049-3.9-.507-6.258-.853Z" transform="translate(-360.691 -151.536)" fill="#fff" fill-rule="evenodd"/>
    <path id="_Compound_Path_3" data-name="&lt;Compound Path&gt;" d="M360.86,306.44h12.9v2.34c0,2.791-1.72,3.143-3.77,3.143H364.9c-1.98,0-4.038-.31-4.038-3.228Zm1.191,2.149c0,1.564.888,1.931,2.572,1.931h5.532c1.487,0,2.4-.268,2.4-1.917v-.789H362.051Z" transform="translate(-360.691 -155.433)" fill="#fff" fill-rule="evenodd"/>
    <path id="_Compound_Path_4" data-name="&lt;Compound Path&gt;" d="M360.62,321.627c0-1.994,1.268-2.727,3.383-2.727h6.519c2.185,0,3.34,1,3.34,2.826,0,1.9-1.3,2.762-3.34,2.762h-6.5C361.755,324.488,360.62,323.551,360.62,321.627Zm1.24.07c0,.909.564,1.388,2.093,1.388h6.631c1.367,0,2.023-.472,2.023-1.4s-.62-1.381-2.023-1.381H363.89C362.438,320.3,361.86,320.831,361.86,321.7Z" transform="translate(-360.62 -159.113)" fill="#fff" fill-rule="evenodd"/>
    <path id="_Path_24" data-name="&lt;Path&gt;" d="M373.756,332.356V330.89l-12.9,1.8v1.48c2.988.451,7.928,1.226,10.254,1.494v.028c-2.135.225-7.237,1.022-10.254,1.438v1.487l12.9,1.959v-1.4c-3.15-.4-8.316-1.085-10.521-1.233v-.049c2.319-.162,7.449-1.029,10.521-1.466v-1.4c-3.051-.43-8.513-1.311-10.592-1.487V333.5C365.2,333.392,370.62,332.75,373.756,332.356Z" transform="translate(-360.691 -162.653)" fill="#fff"/>
    <path id="_Path_25" data-name="&lt;Path&gt;" d="M370.676,348.611c-1.9,0-2.551.7-3.629,2.079-1.057,1.36-1.642,1.691-3.157,1.691-1.409,0-2.079-.366-2.079-1.29,0-.9.648-1.325,1.86-1.325h.754V348.4h-.747c-1.7,0-3.058.585-3.058,2.671,0,2.178,1.649,2.692,3.46,2.692,2.142,0,2.9-.564,4.249-2.361.9-1.177,1.353-1.417,2.551-1.417,1.015,0,1.79.226,1.79,1.113s-.691,1.092-1.762,1.092h-.564v1.36h.6c1.635,0,2.918-.507,2.925-2.424C373.883,349.1,372.311,348.611,370.676,348.611Z" transform="translate(-360.62 -167.824)" fill="#fff"/>
  </g>
</svg>
